<?xml version="1.0" encoding="UTF-8" standalone="no"?>
<!-- Created with Inkscape (http://www.inkscape.org/) -->

<svg
   width="250"
   height="250"
   viewBox="0 0 66.145832 66.145833"
   version="1.1"
   id="svg1"
   inkscape:version="1.3.2 (091e20e, 2023-11-25)"
   sodipodi:docname="Cowbell.svg"
   xmlns:inkscape="http://www.inkscape.org/namespaces/inkscape"
   xmlns:sodipodi="http://sodipodi.sourceforge.net/DTD/sodipodi-0.dtd"
   xmlns="http://www.w3.org/2000/svg"
   xmlns:svg="http://www.w3.org/2000/svg">
  <sodipodi:namedview
     id="namedview1"
     pagecolor="#505050"
     bordercolor="#eeeeee"
     borderopacity="1"
     inkscape:showpageshadow="0"
     inkscape:pageopacity="0"
     inkscape:pagecheckerboard="0"
     inkscape:deskcolor="#3e3e3e"
     inkscape:document-units="mm"
     inkscape:zoom="1.6855798"
     inkscape:cx="74.455093"
     inkscape:cy="67.632515"
     inkscape:window-width="1392"
     inkscape:window-height="973"
     inkscape:window-x="0"
     inkscape:window-y="25"
     inkscape:window-maximized="0"
     inkscape:current-layer="g1" />
  <defs
     id="defs1" />
  <g
     inkscape:label="Layer 1"
     inkscape:groupmode="layer"
     id="layer1">
    <g
       id="g1"
       transform="matrix(1.3146131,0,0,1.3146131,-3.1647124,-10.952046)">
      <path
         id="rect2"
         style="fill:#deba00;fill-opacity:1;stroke-width:0.211022;stroke-linecap:round;stroke-dasharray:0, 1.77"
         d="m 17.183584,13.763885 c -0.822421,0 -1.547579,0.384468 -2.003402,0.978295 h -0.0032 l -4.68e-4,0.0051 c -0.310312,0.40663 -0.496157,0.909945 -0.496157,1.45808 l -2.836591,23.466006 9.024666,-3.462888 c 0.05269,-2.684616 1.699342,-5.196782 4.360674,-6.218033 0.910103,-0.349333 1.884678,-0.498911 2.857656,-0.438594 2.657092,0.165025 4.973537,1.865363 5.927353,4.350843 1.345721,3.506377 -0.40586,7.439788 -3.912251,8.785475 -2.661362,1.021338 -5.565772,0.255452 -7.400881,-1.704761 L 11.149089,45.41663 10.206368,53.21398 H 44.924136 L 40.450185,16.205413 c -0.06578,-0.544174 -0.185827,-1.051449 -0.496169,-1.458083 l -4.67e-4,-0.0051 h -0.0032 C 39.494467,14.148409 38.769361,13.76394 37.94694,13.76394 Z m 2.138209,3.058931 h 16.4864 c 0.653039,0 1.229035,0.305015 1.591019,0.776553 h 0.0029 l 4.68e-4,0.0043 c 0.246424,0.322884 0.341893,0.725474 0.394126,1.157572 l 0.41891,3.468459 H 16.914943 l 0.419404,-3.468506 c 0,-0.435244 0.146802,-0.834672 0.393192,-1.157572 l 8.63e-4,-0.0043 h 0.0023 c 0.361939,-0.471525 0.937981,-0.776553 1.59102,-0.776553 z" />
      <path
         id="path1"
         style="fill:#deba00;fill-opacity:1;stroke-width:0.965525;stroke-linecap:round"
         d="m 27.987883,31.257721 c -0.743215,-0.04608 -1.487649,0.06819 -2.182829,0.335059 -2.214938,0.855207 -3.568016,3.103467 -3.286637,5.461039 l -20.1110833,7.55174 0.9119914,2.37613 20.1110829,-7.551242 c 1.36798,1.940785 3.877894,2.706819 6.096458,1.860658 2.678254,-1.027616 4.016362,-4.031814 2.988754,-6.71007 -0.72855,-1.898596 -2.498058,-3.197397 -4.527737,-3.323314 z"
         sodipodi:nodetypes="ccccccccc" />
    </g>
  </g>
</svg>
