<?xml version="1.0" encoding="UTF-8" standalone="no"?>
<!-- Created with Inkscape (http://www.inkscape.org/) -->

<svg
   width="250"
   height="250"
   viewBox="0 0 66.145832 66.145833"
   version="1.1"
   id="svg1"
   inkscape:version="1.3.2 (091e20e, 2023-11-25)"
   sodipodi:docname="Cowbell.svg"
   xmlns:inkscape="http://www.inkscape.org/namespaces/inkscape"
   xmlns:sodipodi="http://sodipodi.sourceforge.net/DTD/sodipodi-0.dtd"
   xmlns="http://www.w3.org/2000/svg"
   xmlns:svg="http://www.w3.org/2000/svg">
  <sodipodi:namedview
     id="namedview1"
     pagecolor="#505050"
     bordercolor="#eeeeee"
     borderopacity="1"
     inkscape:showpageshadow="0"
     inkscape:pageopacity="0"
     inkscape:pagecheckerboard="0"
     inkscape:deskcolor="#3e3e3e"
     inkscape:document-units="mm"
     inkscape:zoom="1.1918849"
     inkscape:cx="20.555676"
     inkscape:cy="67.120575"
     inkscape:window-width="1392"
     inkscape:window-height="973"
     inkscape:window-x="0"
     inkscape:window-y="25"
     inkscape:window-maximized="0"
     inkscape:current-layer="layer1" />
  <defs
     id="defs1" />
  <g
     inkscape:label="Layer 1"
     inkscape:groupmode="layer"
     id="layer1">
    <path
       id="rect2"
       style="fill:#deba00;fill-opacity:1;stroke-width:0.349368;stroke-linecap:round;stroke-dasharray:0, 2.93042"
       d="m 15.885348,0.83198649 c -1.361602,0 -2.562107,0.63661271 -3.316766,1.61975341 h -0.0054 l -0.0014,0.0089 c -0.513775,0.6732213 -0.821129,1.5060677 -0.821129,2.413563 L 4.3338211,66.145849 h 6.4311509 l 0.975681,-8.070046 c 0,-0.907495 0.307266,-1.740319 0.821158,-2.413563 l 0.0014,-0.0089 h 0.0054 c 0.754659,-0.983141 1.955164,-1.619753 3.316766,-1.619753 h 34.375137 c 1.361602,0 2.56193,0.636565 3.316766,1.619753 h 0.0054 l 0.0014,0.0089 c 0.513799,0.67322 0.71224,1.512625 0.821158,2.413563 l 0.975679,8.070046 h 6.431151 L 54.405247,4.8741902 C 54.296331,3.9732524 54.097888,3.1338485 53.584089,2.4606274 l -0.0014,-0.0089 h -0.0054 C 52.82257,1.4685626 51.622153,0.83197377 50.26055,0.83197377 Z m 3.539663,5.06437811 h 27.295127 c 1.081172,0 2.034419,0.5054157 2.633722,1.2860941 h 0.0048 l 6.85e-4,0.00683 c 0.407981,0.5345671 0.565799,1.2011067 0.652277,1.9164926 l 0.693984,5.7419507 H 15.440243 l 0.693982,-5.7419507 c 0,-0.7205925 0.243674,-1.3819001 0.651595,-1.9164926 l 0.0014,-0.00683 h 0.0041 c 0.599228,-0.7806593 1.55255,-1.2860941 2.633722,-1.2860941 z m 0,53.2016004 c -1.081171,0 -2.034493,0.505435 -2.633722,1.286092 h -0.0041 l -0.0014,0.0068 c -0.407922,0.534593 -0.651595,1.1959 -0.651595,1.916491 l -0.464251,3.838451 h 34.805884 l -0.46425,-3.838451 C 49.925103,61.591997 49.767281,60.925457 49.3593,60.390891 l -6.85e-4,-0.0068 h -0.0048 c -0.599271,-0.780711 -1.552518,-1.286126 -2.63369,-1.286126 z" />
  </g>
</svg>
