<?xml version="1.0" encoding="UTF-8" standalone="no"?>
<!-- Created with Inkscape (http://www.inkscape.org/) -->

<svg
   width="250"
   height="250"
   viewBox="0 0 66.145832 66.145833"
   version="1.1"
   id="svg1"
   inkscape:version="1.3.2 (091e20e, 2023-11-25)"
   sodipodi:docname="Cowbell.svg"
   xmlns:inkscape="http://www.inkscape.org/namespaces/inkscape"
   xmlns:sodipodi="http://sodipodi.sourceforge.net/DTD/sodipodi-0.dtd"
   xmlns="http://www.w3.org/2000/svg"
   xmlns:svg="http://www.w3.org/2000/svg">
  <sodipodi:namedview
     id="namedview1"
     pagecolor="#505050"
     bordercolor="#eeeeee"
     borderopacity="1"
     inkscape:showpageshadow="0"
     inkscape:pageopacity="0"
     inkscape:pagecheckerboard="0"
     inkscape:deskcolor="#3e3e3e"
     inkscape:document-units="mm"
     inkscape:zoom="0.14898561"
     inkscape:cx="-151.02129"
     inkscape:cy="-1161.1859"
     inkscape:window-width="1392"
     inkscape:window-height="973"
     inkscape:window-x="0"
     inkscape:window-y="25"
     inkscape:window-maximized="0"
     inkscape:current-layer="g1" />
  <defs
     id="defs1" />
  <g
     inkscape:label="Layer 1"
     inkscape:groupmode="layer"
     id="layer1">
    <g
       id="g1"
       transform="matrix(1.3146131,0,0,1.3146131,-3.1647124,-10.952046)">
      <path
         id="rect2"
         style="fill:#deba00;fill-opacity:1;stroke-width:0.232968;stroke-linecap:round;stroke-dasharray:0, 1.95408"
         d="m 21.611601,11.712463 c -0.907951,0 -1.708525,0.424453 -2.211752,1.080038 h -0.0036 l -5.17e-4,0.0057 c -0.342598,0.448922 -0.54777,1.004581 -0.54777,1.609721 l -3.131592,25.906429 9.963216,-3.823022 c 0.05817,-2.963811 1.87607,-5.737239 4.814177,-6.864698 1.004752,-0.385663 2.080681,-0.550798 3.154846,-0.484208 2.933426,0.182191 5.490777,2.059358 6.543787,4.803325 1.485675,3.871034 -0.448068,8.213512 -4.319116,9.699149 -2.938141,1.127555 -6.144604,0.282018 -8.170561,-1.882055 L 14.949475,46.6571 13.908712,55.265361 h 38.32841 L 47.297888,14.407906 c -0.07263,-0.600768 -0.205154,-1.160798 -0.54777,-1.609721 l -5.17e-4,-0.0057 h -0.0036 C 46.2427,12.136916 45.442185,11.712463 44.534233,11.712463 Z m 2.360579,3.377055 h 18.200956 c 0.720955,0 1.356853,0.336736 1.756482,0.857312 h 0.0031 l 5.17e-4,0.0047 c 0.272051,0.356463 0.377449,0.800921 0.435115,1.277958 l 0.462504,3.829224 H 21.314978 l 0.463021,-3.829224 c 0,-0.480509 0.162069,-0.921478 0.434082,-1.277958 l 10e-4,-0.0047 h 0.0026 c 0.399581,-0.520563 1.035529,-0.857312 1.756482,-0.857312 z" />
      <path
         id="path1"
         style="fill:#deba00;fill-opacity:1;stroke-width:1.00666;stroke-linecap:round"
         d="m 20.104542,41.16645 a 5.4154215,5.4154215 0 0 0 -2.249908,-0.489234 5.4154215,5.4154215 0 0 0 -5.239109,4.088042 l -26.695365,5.03e-4 1.43e-4,2.653575 26.695179,-2e-5 a 5.4154215,5.4154215 0 0 0 5.239215,4.088429 5.4154215,5.4154215 0 0 0 5.415716,-5.415111 5.4154215,5.4154215 0 0 0 -3.165871,-4.926184 z"
         transform="rotate(-20.994388)" />
    </g>
  </g>
</svg>
