<?xml version="1.0" encoding="UTF-8" standalone="no"?>
<!-- Created with Inkscape (http://www.inkscape.org/) -->

<svg
   width="250"
   height="250"
   viewBox="0 0 66.145832 66.145833"
   version="1.1"
   id="svg1"
   inkscape:version="1.3.2 (091e20e, 2023-11-25)"
   sodipodi:docname="Cowbell.svg"
   xmlns:inkscape="http://www.inkscape.org/namespaces/inkscape"
   xmlns:sodipodi="http://sodipodi.sourceforge.net/DTD/sodipodi-0.dtd"
   xmlns="http://www.w3.org/2000/svg"
   xmlns:svg="http://www.w3.org/2000/svg">
  <sodipodi:namedview
     id="namedview1"
     pagecolor="#505050"
     bordercolor="#eeeeee"
     borderopacity="1"
     inkscape:showpageshadow="0"
     inkscape:pageopacity="0"
     inkscape:pagecheckerboard="0"
     inkscape:deskcolor="#3e3e3e"
     inkscape:document-units="mm"
     inkscape:zoom="0.59594245"
     inkscape:cx="69.637597"
     inkscape:cy="-151.02129"
     inkscape:window-width="1392"
     inkscape:window-height="973"
     inkscape:window-x="0"
     inkscape:window-y="25"
     inkscape:window-maximized="0"
     inkscape:current-layer="g1" />
  <defs
     id="defs1" />
  <g
     inkscape:label="Layer 1"
     inkscape:groupmode="layer"
     id="layer1">
    <g
       id="g1"
       transform="matrix(1.3146131,0,0,1.3146131,-3.1647124,-10.952046)">
      <path
         id="rect2"
         style="fill:#deba00;fill-opacity:1;stroke-width:0.183558;stroke-linecap:round;stroke-dasharray:0, 1.53964"
         d="m 18.534732,16.331049 c -0.715385,0 -1.346166,0.334431 -1.742664,0.850973 h -0.0028 l -4.07e-4,0.0044 c -0.269925,0.353708 -0.431583,0.791518 -0.431583,1.268315 l -2.467416,20.411962 7.850128,-3.012202 c 0.04583,-2.335219 1.478177,-4.520433 3.793143,-5.408771 0.791655,-0.303868 1.639392,-0.433979 2.485739,-0.381512 2.311278,0.143548 4.326243,1.622591 5.155922,3.784592 1.170579,3.05003 -0.353038,6.471517 -3.403081,7.642066 -2.314992,0.888414 -4.8414,0.222206 -6.437674,-1.48289 l -10.048443,3.856249 -0.820028,6.782544 h 30.19935 L 38.773241,18.454818 c -0.05722,-0.473351 -0.161642,-0.914605 -0.431594,-1.268317 l -4.06e-4,-0.0044 h -0.0028 c -0.39655,-0.516537 -1.027285,-0.850968 -1.74267,-0.850968 z m 1.859926,2.660819 h 14.340735 c 0.568048,0 1.069079,0.265318 1.383952,0.675486 h 0.0025 l 4.07e-4,0.0037 c 0.214352,0.280861 0.297396,0.631055 0.342831,1.006917 l 0.364413,3.017088 H 18.301054 l 0.364819,-3.017088 c 0,-0.378598 0.127696,-0.726042 0.342019,-1.006917 l 7.51e-4,-0.0037 h 0.002 c 0.314833,-0.410157 0.815905,-0.675486 1.383952,-0.675486 z" />
      <path
         id="path1"
         style="fill:#deba00;fill-opacity:1;stroke-width:0.779326;stroke-linecap:round"
         d="m 27.96625,31.822272 c -0.59989,-0.03719 -1.200763,0.05504 -1.761881,0.270445 -1.787798,0.690284 -2.879942,2.504978 -2.652826,4.407905 L 2.4073337,44.496424 3.1434522,46.41433 24.287661,38.418929 c 1.104172,1.566515 3.130062,2.184823 4.920788,1.50184 2.161765,-0.829446 3.241826,-3.254299 2.412387,-5.416067 -0.588052,-1.532462 -2.01632,-2.580796 -3.654586,-2.68243 z"
         sodipodi:nodetypes="ccccccccc" />
    </g>
  </g>
</svg>
